<?xml version="1.0" standalone="no"?>
<svg xmlns:xlink="http://www.w3.org/1999/xlink" id="wave" style="transform:rotate(0deg); transition: 0.3s" viewBox="0 0 1440 490" version="1.1" xmlns="http://www.w3.org/2000/svg"><defs><linearGradient id="sw-gradient-0" x1="0" x2="0" y1="1" y2="0"><stop stop-color="rgba(149, 185, 231, 1)" offset="0%"/><stop stop-color="rgba(149, 185, 231, 1)" offset="100%"/></linearGradient></defs><path style="transform:translate(0, 0px); opacity:1" fill="url(#sw-gradient-0)" d="M0,0L80,57.2C160,114,320,229,480,245C640,261,800,180,960,138.8C1120,98,1280,98,1440,147C1600,196,1760,294,1920,285.8C2080,278,2240,163,2400,106.2C2560,49,2720,49,2880,89.8C3040,131,3200,212,3360,253.2C3520,294,3680,294,3840,302.2C4000,310,4160,327,4320,302.2C4480,278,4640,212,4800,155.2C4960,98,5120,49,5280,73.5C5440,98,5600,196,5760,269.5C5920,343,6080,392,6240,392C6400,392,6560,343,6720,285.8C6880,229,7040,163,7200,163.3C7360,163,7520,229,7680,285.8C7840,343,8000,392,8160,343C8320,294,8480,147,8640,73.5C8800,0,8960,0,9120,73.5C9280,147,9440,294,9600,326.7C9760,359,9920,278,10080,269.5C10240,261,10400,327,10560,302.2C10720,278,10880,163,11040,163.3C11200,163,11360,278,11440,334.8L11520,392L11520,490L11440,490C11360,490,11200,490,11040,490C10880,490,10720,490,10560,490C10400,490,10240,490,10080,490C9920,490,9760,490,9600,490C9440,490,9280,490,9120,490C8960,490,8800,490,8640,490C8480,490,8320,490,8160,490C8000,490,7840,490,7680,490C7520,490,7360,490,7200,490C7040,490,6880,490,6720,490C6560,490,6400,490,6240,490C6080,490,5920,490,5760,490C5600,490,5440,490,5280,490C5120,490,4960,490,4800,490C4640,490,4480,490,4320,490C4160,490,4000,490,3840,490C3680,490,3520,490,3360,490C3200,490,3040,490,2880,490C2720,490,2560,490,2400,490C2240,490,2080,490,1920,490C1760,490,1600,490,1440,490C1280,490,1120,490,960,490C800,490,640,490,480,490C320,490,160,490,80,490L0,490Z"/></svg>